<mxfile host="app.diagrams.net" modified="2022-03-09T10:56:04.481Z" agent="5.0 (X11; Linux x86_64) AppleWebKit/537.36 (KHTML, like Gecko) Chrome/96.0.4664.93 Safari/537.36" etag="OkWhqCVWLzAv-rv4Z6re" version="16.6.7" type="github">
  <diagram id="Wbo0mvKdlZ63yRtD88-B" name="Page-1">
    <mxGraphModel dx="1346" dy="851" grid="1" gridSize="10" guides="1" tooltips="1" connect="1" arrows="1" fold="1" page="1" pageScale="1" pageWidth="1169" pageHeight="1654" math="0" shadow="0">
      <root>
        <mxCell id="0" />
        <mxCell id="1" parent="0" />
        <mxCell id="d9juzgtNd6DsaJx-Owet-54" value="Processamento" style="shape=umlFrame;whiteSpace=wrap;html=1;labelBackgroundColor=none;labelBorderColor=none;fontSize=14;fontColor=#FFFFFF;fillColor=#000000;gradientColor=none;width=120;height=30;" parent="1" vertex="1">
          <mxGeometry x="200" y="300" width="390" height="360" as="geometry" />
        </mxCell>
        <mxCell id="d9juzgtNd6DsaJx-Owet-38" style="edgeStyle=orthogonalEdgeStyle;rounded=0;orthogonalLoop=1;jettySize=auto;html=1;exitX=0.5;exitY=1;exitDx=0;exitDy=0;entryX=0.5;entryY=0;entryDx=0;entryDy=0;fontSize=14;fontColor=#FFFFFF;" parent="1" source="d9juzgtNd6DsaJx-Owet-1" target="d9juzgtNd6DsaJx-Owet-3" edge="1">
          <mxGeometry relative="1" as="geometry" />
        </mxCell>
        <mxCell id="d9juzgtNd6DsaJx-Owet-1" value="" style="ellipse;html=1;shape=startState;fillColor=#000000;strokeColor=#ff0000;fontSize=14;" parent="1" vertex="1">
          <mxGeometry x="398" y="30" width="30" height="30" as="geometry" />
        </mxCell>
        <mxCell id="d9juzgtNd6DsaJx-Owet-39" style="edgeStyle=orthogonalEdgeStyle;rounded=0;orthogonalLoop=1;jettySize=auto;html=1;exitX=0.5;exitY=1;exitDx=0;exitDy=0;entryX=0.5;entryY=0;entryDx=0;entryDy=0;fontSize=14;fontColor=#FFFFFF;" parent="1" source="d9juzgtNd6DsaJx-Owet-3" target="d9juzgtNd6DsaJx-Owet-6" edge="1">
          <mxGeometry relative="1" as="geometry" />
        </mxCell>
        <mxCell id="d9juzgtNd6DsaJx-Owet-3" value="Registo na Plataforma" style="rounded=1;whiteSpace=wrap;html=1;arcSize=40;fontColor=#000000;fillColor=#ffffc0;strokeColor=#ff0000;fontSize=14;" parent="1" vertex="1">
          <mxGeometry x="346" y="120" width="134" height="40" as="geometry" />
        </mxCell>
        <mxCell id="d9juzgtNd6DsaJx-Owet-40" style="edgeStyle=orthogonalEdgeStyle;rounded=0;orthogonalLoop=1;jettySize=auto;html=1;exitX=0.5;exitY=1;exitDx=0;exitDy=0;entryX=0.5;entryY=0;entryDx=0;entryDy=0;fontSize=14;fontColor=#FFFFFF;" parent="1" source="d9juzgtNd6DsaJx-Owet-6" target="d9juzgtNd6DsaJx-Owet-7" edge="1">
          <mxGeometry relative="1" as="geometry">
            <mxPoint x="409" y="290" as="targetPoint" />
          </mxGeometry>
        </mxCell>
        <mxCell id="d9juzgtNd6DsaJx-Owet-6" value="Dados solicitados" style="html=1;fontSize=14;fillColor=#000000;gradientColor=none;fontColor=#FFFFFF;" parent="1" vertex="1">
          <mxGeometry x="354" y="220" width="118" height="50" as="geometry" />
        </mxCell>
        <mxCell id="d9juzgtNd6DsaJx-Owet-42" style="edgeStyle=orthogonalEdgeStyle;rounded=0;orthogonalLoop=1;jettySize=auto;html=1;exitX=0.5;exitY=1;exitDx=0;exitDy=0;entryX=0.5;entryY=0;entryDx=0;entryDy=0;fontSize=14;fontColor=#FFFFFF;" parent="1" source="d9juzgtNd6DsaJx-Owet-7" target="d9juzgtNd6DsaJx-Owet-19" edge="1">
          <mxGeometry relative="1" as="geometry" />
        </mxCell>
        <mxCell id="d9juzgtNd6DsaJx-Owet-7" value="Verificação na Ordem dos Médicos Dentistas&lt;br&gt;" style="rounded=1;whiteSpace=wrap;html=1;arcSize=40;fontColor=#000000;fillColor=#ffffc0;strokeColor=#ff0000;fontSize=14;" parent="1" vertex="1">
          <mxGeometry x="335" y="330" width="157" height="70" as="geometry" />
        </mxCell>
        <mxCell id="d9juzgtNd6DsaJx-Owet-43" style="edgeStyle=orthogonalEdgeStyle;rounded=0;orthogonalLoop=1;jettySize=auto;html=1;exitX=0.5;exitY=1;exitDx=0;exitDy=0;entryX=0.5;entryY=0;entryDx=0;entryDy=0;fontSize=14;fontColor=#FFFFFF;labelBorderColor=none;" parent="1" source="d9juzgtNd6DsaJx-Owet-19" target="d9juzgtNd6DsaJx-Owet-28" edge="1">
          <mxGeometry relative="1" as="geometry" />
        </mxCell>
        <mxCell id="d9juzgtNd6DsaJx-Owet-19" value="&lt;font color=&quot;#000000&quot;&gt;Aprovado&lt;/font&gt;" style="rhombus;whiteSpace=wrap;html=1;fillColor=#ffffc0;strokeColor=#FF0000;fontSize=14;fontColor=#FFFFFF;" parent="1" vertex="1">
          <mxGeometry x="366.5" y="460" width="93" height="50" as="geometry" />
        </mxCell>
        <mxCell id="d9juzgtNd6DsaJx-Owet-45" style="edgeStyle=orthogonalEdgeStyle;rounded=0;orthogonalLoop=1;jettySize=auto;html=1;exitX=0.5;exitY=1;exitDx=0;exitDy=0;entryX=0.5;entryY=0;entryDx=0;entryDy=0;fontSize=14;fontColor=#FFFFFF;" parent="1" source="d9juzgtNd6DsaJx-Owet-28" edge="1">
          <mxGeometry relative="1" as="geometry">
            <mxPoint x="413" y="690" as="targetPoint" />
          </mxGeometry>
        </mxCell>
        <mxCell id="d9juzgtNd6DsaJx-Owet-28" value="&lt;font color=&quot;#ffffff&quot;&gt;Credências de acesso&lt;br&gt;&lt;/font&gt;" style="html=1;fontSize=14;fontColor=#000000;fillColor=#000000;gradientColor=none;" parent="1" vertex="1">
          <mxGeometry x="339" y="570" width="148" height="60" as="geometry" />
        </mxCell>
        <mxCell id="d9juzgtNd6DsaJx-Owet-51" value="Sim&lt;br&gt;" style="shape=note2;boundedLbl=1;whiteSpace=wrap;html=1;size=0;verticalAlign=top;align=center;fontSize=14;fontColor=#333333;fillColor=#f5f5f5;labelBackgroundColor=none;labelBorderColor=none;strokeColor=#666666;" parent="1" vertex="1">
          <mxGeometry x="363" y="520" width="50" height="30" as="geometry" />
        </mxCell>
        <mxCell id="d9juzgtNd6DsaJx-Owet-52" value="Não" style="shape=note2;boundedLbl=1;whiteSpace=wrap;html=1;size=0;verticalAlign=top;align=center;fontSize=14;fontColor=#333333;fillColor=#f5f5f5;labelBackgroundColor=none;labelBorderColor=none;strokeColor=#666666;" parent="1" vertex="1">
          <mxGeometry x="620" y="300" width="50" height="30" as="geometry" />
        </mxCell>
        <mxCell id="d9juzgtNd6DsaJx-Owet-55" value="&lt;font color=&quot;#000000&quot;&gt;&lt;br&gt;&lt;br&gt;&lt;br&gt;&lt;br&gt;30 min&lt;br&gt;&lt;/font&gt;" style="shape=collate;whiteSpace=wrap;html=1;labelBackgroundColor=none;labelBorderColor=none;fontSize=14;fontColor=#FFFFFF;fillColor=#000000;gradientColor=none;" parent="1" vertex="1">
          <mxGeometry x="230" y="370" width="50" height="50" as="geometry" />
        </mxCell>
        <mxCell id="d9juzgtNd6DsaJx-Owet-67" value="" style="edgeStyle=orthogonalEdgeStyle;rounded=0;orthogonalLoop=1;jettySize=auto;html=1;labelBorderColor=none;fontSize=14;fontColor=#000000;" parent="1" source="d9juzgtNd6DsaJx-Owet-56" target="d9juzgtNd6DsaJx-Owet-65" edge="1">
          <mxGeometry relative="1" as="geometry" />
        </mxCell>
        <mxCell id="d9juzgtNd6DsaJx-Owet-56" value="Acesso ao Sistema" style="html=1;align=center;verticalAlign=top;rounded=1;absoluteArcSize=1;arcSize=10;dashed=0;labelBackgroundColor=none;labelBorderColor=none;fontSize=14;fillColor=#FFF2CC;strokeColor=#FF0000;" parent="1" vertex="1">
          <mxGeometry x="343" y="690" width="140" height="40" as="geometry" />
        </mxCell>
        <mxCell id="d9juzgtNd6DsaJx-Owet-65" value="Pedido de adesão" style="html=1;align=center;verticalAlign=top;rounded=1;absoluteArcSize=1;arcSize=10;dashed=0;labelBackgroundColor=none;labelBorderColor=none;fontSize=14;fillColor=#FFF2CC;strokeColor=#FF0000;" parent="1" vertex="1">
          <mxGeometry x="343" y="787" width="140" height="40" as="geometry" />
        </mxCell>
      </root>
    </mxGraphModel>
  </diagram>
</mxfile>
